<!--?xml version="1.0" encoding="utf-8"?-->
<!-- Generator: Adobe Illustrator 18.1.1, SVG Export Plug-In . SVG Version: 6.00 Build 0)  -->

<svg version="1.1" id="_x32_" xmlns="http://www.w3.org/2000/svg" xmlns:xlink="http://www.w3.org/1999/xlink" x="0px" y="0px" viewBox="0 0 512 512" style="width: 256px; height: 256px; opacity: 1;" xml:space="preserve">
<style type="text/css">
	.st0{fill:#4B4B4B;}
</style>
<g>
	<path class="st0" d="M325.153,213.315c0-37.242,31.354-62.075,37.435-103.115c3.976-26.855-15.23-41.714-45.814-56.098
		c-7.98-3.756-26.883-9.967-26.883-28.224c0-7.636-0.688-15.464-0.688-15.464C288.957,4.595,283.811,0,277.565,0h-43.117
		c-6.26,0-11.391,4.595-11.653,10.415c0,0-0.674,7.828-0.674,15.464c0,18.257-18.903,24.468-26.897,28.224
		c-30.584,14.384-49.789,29.242-45.8,56.098c6.08,41.04,37.435,65.873,37.435,103.115c0,28.478-56.159,77.897-38.412,132.392
		c3.233,9.912,45.951,26.209,97.763,28.087v87.286L214.1,448.038c-4.513-1.83-9.658,0.344-11.488,4.85
		c-1.829,4.506,0.345,9.651,4.857,11.481l25.122,10.201l-50.381,20.452c-4.513,1.829-6.673,6.975-4.843,11.48
		c1.829,4.506,6.961,6.68,11.474,4.85l67.166-27.274l67.152,27.274c4.512,1.83,9.658-0.344,11.488-4.85
		c1.83-4.505-0.344-9.651-4.856-11.48l-50.368-20.452l25.122-10.201c4.512-1.83,6.672-6.975,4.843-11.481
		c-1.83-4.505-6.962-6.679-11.474-4.85l-32.125,13.042v-87.286c51.826-1.878,94.544-18.174,97.763-28.087
		C381.299,291.212,325.153,241.794,325.153,213.315z" style="fill: rgba(236, 179, 217, 0.8);"></path>
</g>
</svg>
